<svg xmlns="http://www.w3.org/2000/svg" version="1.1" xmlns:xlink="http://www.w3.org/1999/xlink" xmlns:svgjs="http://svgjs.com/svgjs" width="1440" height="560" preserveAspectRatio="none" viewBox="0 0 1440 560"><g mask="url(&quot;#SvgjsMask1352&quot;)" fill="none"><rect width="1440" height="560" x="0" y="0" fill="url(#SvgjsRadialGradient1353)"></rect><path d="M-24.43 38.41 a179.85 179.85 0 1 0 359.7 0 a179.85 179.85 0 1 0 -359.7 0z" fill="rgba(28, 83, 142, 0.4)" class="triangle-float1"></path><path d="M153.43295855307704 233.56411302063975L255.07241144209382 289.90378174172895 311.4120801631831 188.2643288527122 209.77262727416627 131.92466013162297z" fill="rgba(28, 83, 142, 0.4)" class="triangle-float1"></path><path d="M925.804,614.886C964.855,612.038,995.101,585.551,1015.768,552.295C1038.005,516.513,1056.886,473.304,1036.806,436.268C1016.082,398.045,969.284,386.234,925.804,386.369C882.609,386.503,839.301,400.588,815.992,436.954C790.831,476.209,785.337,527.637,809.825,567.315C833.346,605.426,881.138,618.144,925.804,614.886" fill="rgba(28, 83, 142, 0.4)" class="triangle-float2"></path><path d="M1127.35 89.06 a176.44 176.44 0 1 0 352.88 0 a176.44 176.44 0 1 0 -352.88 0z" fill="rgba(28, 83, 142, 0.4)" class="triangle-float1"></path><path d="M583.5574816671685 616.6962550076162L619.5481020666239 491.18204558376044 494.0338926427681 455.1914251843051 458.0432722433128 580.7056346081608z" fill="rgba(28, 83, 142, 0.4)" class="triangle-float2"></path><path d="M-58.772093843023086 442.0034909692027L-11.066900202390798 580.549433261958 79.77384844973228 394.2982973285704z" fill="rgba(28, 83, 142, 0.4)" class="triangle-float3"></path><path d="M479.5554197945231-111.63956915387968L361.2756502363664-15.858500315699487 457.05671907454655 102.42126924245724 575.3364886327033 6.640200404277053z" fill="rgba(28, 83, 142, 0.4)" class="triangle-float3"></path><path d="M-7.751257699460702 344.48160091149526L100.11407764382992 309.54764440384236 27.62737417620763 241.95269987589748z" fill="rgba(28, 83, 142, 0.4)" class="triangle-float2"></path><path d="M742.937,439.124C791.962,439.556,845.209,432.417,871.455,391.007C899.172,347.275,890.881,291.178,865.201,246.219C839.29,200.857,795.138,168.058,742.937,166.009C687.04,163.815,630.15,187.101,602.833,235.918C576.029,283.819,587.125,343.588,618.282,388.778C645.545,428.32,694.909,438.701,742.937,439.124" fill="rgba(28, 83, 142, 0.4)" class="triangle-float1"></path><path d="M1419.1470058120685 382.53899701680473L1356.8763607775288 422.9780267355416 1448.670227872904 496.1644794279826z" fill="rgba(28, 83, 142, 0.4)" class="triangle-float2"></path></g><defs><mask id="SvgjsMask1352"><rect width="1440" height="560" fill="#ffffff"></rect></mask><radialGradient cx="50%" cy="50%" r="772.53" gradientUnits="userSpaceOnUse" id="SvgjsRadialGradient1353"><stop stop-color="rgba(81, 150, 61, 1)" offset="0"></stop><stop stop-color="rgba(142, 207, 119, 1)" offset="1"></stop></radialGradient><style>
            @keyframes float1 {
                0%{transform: translate(0, 0)}
                50%{transform: translate(-10px, 0)}
                100%{transform: translate(0, 0)}
            }

            .triangle-float1 {
                animation: float1 5s infinite;
            }

            @keyframes float2 {
                0%{transform: translate(0, 0)}
                50%{transform: translate(-5px, -5px)}
                100%{transform: translate(0, 0)}
            }

            .triangle-float2 {
                animation: float2 4s infinite;
            }

            @keyframes float3 {
                0%{transform: translate(0, 0)}
                50%{transform: translate(0, -10px)}
                100%{transform: translate(0, 0)}
            }

            .triangle-float3 {
                animation: float3 6s infinite;
            }
        </style></defs></svg>